<?xml version="1.0" encoding="utf-8"?>
<!-- Generator: Adobe Illustrator 27.3.1, SVG Export Plug-In . SVG Version: 6.00 Build 0)  -->
<svg version="1.1" id="Layer_1" xmlns="http://www.w3.org/2000/svg" xmlns:xlink="http://www.w3.org/1999/xlink" x="0px" y="0px"
	 viewBox="0 0 155 41" style="enable-background:new 0 0 155 41;" xml:space="preserve">
<style type="text/css">
	.st0{fill:#FFFFFF;}
</style>
<g>
	<path class="st0" d="M10.7,31.6c-2-1.4-3-3.5-3.2-6.3H16c0.1,1.5,0.8,2.2,1.9,2.2c0.4,0,0.8-0.1,1.1-0.3c0.3-0.2,0.4-0.5,0.4-1
		c0-0.6-0.3-1.1-1-1.5c-0.6-0.4-1.7-0.8-3-1.3c-1.6-0.6-3-1.1-4-1.7c-1.1-0.6-2-1.4-2.8-2.4c-0.8-1.1-1.1-2.4-1.1-4.1
		c0-1.7,0.4-3.1,1.3-4.2c0.9-1.2,2-2,3.5-2.6c1.5-0.6,3.1-0.9,5-0.9c3.1,0,5.6,0.7,7.4,2.2c1.8,1.4,2.8,3.5,2.9,6.1H19
		c0-0.7-0.2-1.2-0.5-1.5c-0.3-0.3-0.7-0.5-1.2-0.5c-0.3,0-0.6,0.1-0.8,0.3c-0.2,0.2-0.3,0.5-0.3,1c0,0.6,0.3,1,1,1.4
		c0.6,0.4,1.6,0.8,3,1.3c1.6,0.6,2.9,1.2,4,1.7s1.9,1.3,2.7,2.3c0.8,1,1.1,2.2,1.1,3.7c0,1.6-0.4,3-1.1,4.2C26,31,24.9,32,23.4,32.7
		c-1.5,0.7-3.2,1-5.2,1C15.2,33.7,12.7,33,10.7,31.6z"/>
	<path class="st0" d="M54.3,8v25.4h-8v-9.9h-7.6v9.9h-8V8h8v9.2h7.6V8H54.3z"/>
	<path class="st0" d="M104.7,29.6h-8.5L95,33.5h-8.4L95.9,8h9.2l9.3,25.4H106L104.7,29.6z M102.8,23.6l-2.3-7.1l-2.3,7.1H102.8z"/>
	<path class="st0" d="M124.2,8v25.4h-8V8H124.2z"/>
	<path class="st0" d="M148.4,22.6c0.8,1.1,1.3,2.4,1.3,3.9c0,2.2-0.7,3.9-2.2,5.2c-1.5,1.2-3.6,1.8-6.3,1.8h-13.3V8h13
		c2.6,0,4.6,0.6,6.1,1.7c1.5,1.1,2.2,2.8,2.2,4.9c0,1.5-0.4,2.7-1.2,3.8c-0.8,1-1.8,1.7-3.1,2C146.3,20.8,147.5,21.5,148.4,22.6z
		 M135.8,17.9h3.1c0.7,0,1.3-0.1,1.6-0.4s0.5-0.7,0.5-1.3c0-0.6-0.2-1.1-0.5-1.4s-0.9-0.4-1.6-0.4h-3.1V17.9z M141,26.7
		c0.3-0.3,0.5-0.7,0.5-1.3c0-1.2-0.7-1.8-2.1-1.8h-3.6v3.6h3.6C140.1,27.1,140.6,26.9,141,26.7z"/>
</g>
<circle class="st0" cx="71.8" cy="20.7" r="13.1"/>
<image style="overflow:visible;" width="983" height="983" xlink:href="../../../../../../taxology/10 august/icons/web icon b.png"  transform="matrix(3.042629e-02 0 0 3.042629e-02 56.8249 5.7032)">
</image>
</svg>
