<?xml version="1.0" encoding="utf-8"?>
<!-- Generator: Adobe Illustrator 27.3.1, SVG Export Plug-In . SVG Version: 6.00 Build 0)  -->
<svg version="1.1" id="Layer_1" xmlns="http://www.w3.org/2000/svg" xmlns:xlink="http://www.w3.org/1999/xlink" x="0px" y="0px"
	 viewBox="0 0 155 41" style="enable-background:new 0 0 155 41;" xml:space="preserve">
<style type="text/css">
	.st0{fill:#FFFFFF;}
</style>
<g>
	<g>
		<path class="st0" d="M9.6,31.4c-2-1.4-3-3.5-3.2-6.3h8.5c0.1,1.5,0.8,2.2,1.9,2.2c0.4,0,0.8-0.1,1.1-0.3c0.3-0.2,0.4-0.5,0.4-1
			c0-0.6-0.3-1.1-1-1.5c-0.6-0.4-1.7-0.8-3-1.3c-1.6-0.6-3-1.1-4-1.7c-1.1-0.6-2-1.4-2.8-2.4c-0.8-1.1-1.1-2.4-1.1-4.1
			c0-1.7,0.4-3.1,1.3-4.2c0.9-1.2,2-2,3.5-2.6c1.5-0.6,3.1-0.9,5-0.9c3.1,0,5.6,0.7,7.4,2.2c1.8,1.4,2.8,3.5,2.9,6.1h-8.6
			c0-0.7-0.2-1.2-0.5-1.5c-0.3-0.3-0.7-0.5-1.2-0.5c-0.3,0-0.6,0.1-0.8,0.3c-0.2,0.2-0.3,0.5-0.3,1c0,0.6,0.3,1,1,1.4
			c0.6,0.4,1.6,0.8,3,1.3c1.6,0.6,2.9,1.2,4,1.7s1.9,1.3,2.7,2.3c0.8,1,1.1,2.2,1.1,3.7c0,1.6-0.4,3-1.1,4.2
			c-0.8,1.2-1.9,2.2-3.3,2.9c-1.5,0.7-3.2,1-5.2,1C14.1,33.6,11.6,32.9,9.6,31.4z"/>
		<path class="st0" d="M53.2,7.9v25.4h-8v-9.9h-7.6v9.9h-8V7.9h8V17h7.6V7.9H53.2z"/>
		<path class="st0" d="M103.7,29.5h-8.5l-1.3,3.8h-8.4l9.3-25.4h9.2l9.3,25.4h-8.4L103.7,29.5z M101.7,23.5l-2.3-7.1l-2.3,7.1H101.7
			z"/>
		<path class="st0" d="M123.1,7.9v25.4h-8V7.9H123.1z"/>
		<path class="st0" d="M147.3,22.5c0.8,1.1,1.3,2.4,1.3,3.9c0,2.2-0.7,3.9-2.2,5.2c-1.5,1.2-3.6,1.8-6.3,1.8h-13.3V7.9h13
			c2.6,0,4.6,0.6,6.1,1.7c1.5,1.1,2.2,2.8,2.2,4.9c0,1.5-0.4,2.7-1.2,3.8c-0.8,1-1.8,1.7-3.1,2C145.3,20.6,146.5,21.4,147.3,22.5z
			 M134.7,17.8h3.1c0.7,0,1.3-0.1,1.6-0.4s0.5-0.7,0.5-1.3c0-0.6-0.2-1.1-0.5-1.4s-0.9-0.4-1.6-0.4h-3.1V17.8z M139.9,26.5
			c0.3-0.3,0.5-0.7,0.5-1.3c0-1.2-0.7-1.8-2.1-1.8h-3.6v3.6h3.6C139,26.9,139.6,26.8,139.9,26.5z"/>
	</g>
	<path class="st0" d="M82.8,24.9c0.5-1.3,0.7-2.7,0.7-4.2s-0.3-2.9-0.7-4.2c0,0,0-0.1,0-0.1c-1.8-5-6.5-8.5-12.1-8.5
		c-5.6,0-10.3,3.6-12.1,8.5c0,0,0,0.1,0,0.1c-0.5,1.3-0.7,2.7-0.7,4.2s0.3,2.9,0.7,4.2c0,0,0,0.1,0,0.1c1.8,5,6.5,8.5,12.1,8.5
		s10.3-3.6,12.1-8.5C82.7,25,82.7,25,82.8,24.9z M70.6,31.7c-0.5,0-1.3-0.9-1.9-2.9c-0.3-1-0.6-2.1-0.8-3.2h5.4
		c-0.2,1.2-0.4,2.3-0.8,3.2C71.9,30.8,71.1,31.7,70.6,31.7z M67.7,23.8c-0.1-1-0.1-2-0.1-3.1s0-2.1,0.1-3.1h5.8c0.1,1,0.1,2,0.1,3.1
		s0,2.1-0.1,3.1H67.7z M59.6,20.7c0-1.1,0.2-2.1,0.4-3.1h5.8c-0.1,1-0.1,2-0.1,3.1c0,1,0,2.1,0.1,3.1H60
		C59.8,22.8,59.6,21.8,59.6,20.7z M70.6,9.7c0.5,0,1.3,0.9,1.9,2.9c0.3,1,0.6,2.1,0.8,3.2h-5.4c0.2-1.2,0.4-2.3,0.8-3.2
		C69.3,10.6,70.1,9.7,70.6,9.7z M75.4,17.7h5.8c0.3,1,0.4,2,0.4,3.1c0,1.1-0.2,2.1-0.4,3.1h-5.8c0.1-1,0.1-2,0.1-3.1
		C75.5,19.7,75.5,18.7,75.4,17.7z M80.5,15.8h-5.3c-0.3-2.3-0.9-4.3-1.7-5.7C76.6,10.9,79.1,13,80.5,15.8z M67.7,10.1
		c-0.8,1.4-1.4,3.5-1.7,5.7h-5.3C62.2,13,64.7,10.9,67.7,10.1z M60.8,25.6h5.3c0.3,2.3,0.9,4.3,1.7,5.7
		C64.7,30.5,62.2,28.4,60.8,25.6z M73.5,31.3c0.8-1.4,1.4-3.5,1.7-5.7h5.3C79.1,28.4,76.6,30.5,73.5,31.3z"/>
</g>
</svg>
